# xmcd CD database file
#
# Track frame offsets:
#	150
#	18104
#	45122
#	65611
#	97716
#	112445
#	134505
#	153258
#	176932
#	201195
#	213608
#	226953
#	248442
#
# Disc length: 3607 seconds
#
# Revision: 0
# Processed by: cddbd v1.5.1PL2 Copyright (c) Steve Scherf et al.
# Submitted via: CDex 1.60beta1
#
DISCID=ac0e150d
DTITLE=NoJazz - Have Fun
DYEAR=2005
DGENRE=Jazz
TTITLE0=Have Fun
TTITLE1=Flamingo
TTITLE2=Boogaloo
TTITLE3=Akosua
TTITLE4=El Negro Zumbon
TTITLE5=Nobody else
TTITLE6=Waka
TTITLE7=Charlie gets wicked
TTITLE8=One note
TTITLE9=The bridge
TTITLE10=Jump
TTITLE11=Kool
TTITLE12=Le K du Q
EXTD=YEAR: 2005
EXTT0=
EXTT1=
EXTT2=
EXTT3=
EXTT4=
EXTT5=
EXTT6=
EXTT7=
EXTT8=
EXTT9=
EXTT10=
EXTT11=
EXTT12=
PLAYORDER=
